<svg width="170" height="170" viewBox="0 0 170 170" fill="none" xmlns="http://www.w3.org/2000/svg">
<path d="M129.313 118.83H48.6766C44.8799 118.83 41.8766 115.827 41.8766 112.03C41.8766 108.29 44.8799 105.23 48.6766 105.23H10.7666C7.02655 105.23 3.96655 102.17 3.96655 98.43C3.96655 94.69 7.02655 91.63 10.7666 91.63H49.6399C53.3799 91.63 56.4399 88.57 56.4399 84.83C56.4399 81.09 53.3799 78.03 49.6399 78.03H25.3299C21.5899 78.03 18.5299 74.97 18.5299 71.23C18.5299 67.49 21.5899 64.43 25.3299 64.43H64.2032C60.4632 64.43 57.4032 61.37 57.4032 57.63C57.4032 53.89 60.4632 50.83 64.2032 50.83H159.403C163.143 50.83 166.203 53.89 166.203 57.63C166.203 61.37 163.143 64.43 159.403 64.43H120.53C124.327 64.43 127.33 67.49 127.33 71.23C127.33 74.97 124.327 78.03 120.53 78.03H141.893C145.69 78.03 148.693 81.09 148.693 84.83C148.693 88.57 145.69 91.63 141.893 91.63H132.033C127.273 91.63 123.477 94.69 123.477 98.43C123.477 102.17 129.313 105.23 129.313 105.23C133.053 105.23 136.113 108.29 136.113 112.03C136.113 115.827 133.053 118.83 129.313 118.83ZM159.403 91.63C155.663 91.63 152.603 88.6266 152.603 84.83C152.603 81.09 155.663 78.03 159.403 78.03C163.143 78.03 166.203 81.09 166.203 84.83C166.203 88.6266 163.143 91.63 159.403 91.63Z" fill="#ADBDC6"/>
<path fill-rule="evenodd" clip-rule="evenodd" d="M107.61 49.8666L116.62 115.77L117.47 122.4C117.696 124.497 116.166 126.48 114.07 126.707L57.1764 133.677C55.0231 133.96 53.0964 132.43 52.8131 130.333L44.0864 58.99C43.9731 57.9133 44.7098 56.95 45.7864 56.8366L50.4898 56.27L107.61 49.8666ZM54.3431 55.8733L58.7631 55.3633Z" fill="white"/>
<path d="M54.3431 55.8733L58.7631 55.3633M107.61 49.8666L116.62 115.77L117.47 122.4C117.696 124.497 116.166 126.48 114.07 126.707L57.1764 133.677C55.0231 133.96 53.0964 132.43 52.8131 130.333L44.0864 58.99C43.9731 57.9133 44.7098 56.95 45.7864 56.8366L50.4898 56.27L107.61 49.8666Z" stroke="#797979" stroke-width="2.5" stroke-linecap="round"/>
<path d="M105.117 54.0033L113.333 113.73L114.07 119.737C114.297 121.663 112.937 123.42 111.01 123.647L60.0666 129.937C58.1966 130.163 56.4399 128.747 56.2132 126.82L48.0532 60.4067L56.2699 59.4433" fill="#E0E0E0"/>
<path d="M61.9365 40.1767C61.9365 38.0233 63.6932 36.2667 65.8465 36.2667H110.103C111.123 36.2667 112.087 36.6633 112.823 37.4L125.913 50.4333C126.593 51.17 127.047 52.19 127.047 53.21V114.013C127.047 116.11 125.29 117.867 123.137 117.867H65.8465C63.6932 117.867 61.9365 116.11 61.9365 114.013V40.1767Z" fill="white" stroke="#797979" stroke-width="2.5" stroke-linejoin="round"/>
<path d="M121.153 52.7567H113.446C111.803 52.7567 110.5 51.4533 110.5 49.8667V38.59" stroke="#797979" stroke-width="2.5" stroke-linecap="round" stroke-linejoin="round"/>
<path d="M73.6099 102.34H98.8265M73.6099 52.7567H98.8265H73.6099ZM73.6099 64.43H115.373H73.6099ZM73.6099 77.0666H115.373H73.6099ZM73.6099 89.7033H115.373H73.6099Z" stroke="#828282" stroke-width="2.5" stroke-linecap="round" stroke-linejoin="round"/>
</svg>
